<svg fill="#000000" xmlns="http://www.w3.org/2000/svg"  viewBox="0 0 50 50" width="50px" height="50px">    <path d="M 21.419922 3 C 15.149922 3 9.089375 5.1896875 4.359375 9.1796875 C 4.029375 9.4496875 3.9105469 9.9007812 4.0605469 10.300781 C 4.2105469 10.700781 4.6195313 10.969453 5.0195312 10.939453 C 5.0895313 10.939453 11.490234 10.860391 14.490234 16.150391 C 13.300234 16.360391 11.530625 16.820859 9.640625 17.880859 C 6.610625 19.570859 2.6495312 23.189063 1.0195312 30.789062 C 0.93953125 31.179063 1.0901563 31.570547 1.4101562 31.810547 C 1.7301563 32.040547 2.15 32.059141 2.5 31.869141 C 2.56 31.829141 8.1392969 28.700625 13.529297 30.890625 C 11.829297 32.720625 9 37.11 9 46 C 9 46.44 9.2909375 46.830938 9.7109375 46.960938 C 9.8109375 46.990938 9.9 47 10 47 C 10.33 47 10.640078 46.840781 10.830078 46.550781 C 10.880078 46.480781 15.640938 39.579609 27.460938 42.349609 C 27.490938 42.359609 27.509297 42.359141 27.529297 42.369141 C 27.859297 42.469141 28.199062 42.549141 28.539062 42.619141 C 28.599062 42.629141 28.670469 42.649922 28.730469 42.669922 L 28.730469 42.660156 C 29.770469 42.880156 30.87 43 32 43 C 39.53 43 44.369453 39.49 44.939453 33.75 C 44.989453 33.74 45.039844 33.730938 45.089844 33.710938 C 46.999844 33.070937 48.200859 31.600859 47.880859 30.380859 C 47.700859 29.730859 47.180859 29.259844 46.380859 29.089844 C 46.510859 28.559844 46.620938 28.020703 46.710938 27.470703 C 47.210938 24.330703 46.939531 21.730625 46.019531 20.140625 C 48.309531 17.330625 47.990469 13.330391 47.980469 13.150391 L 47.919922 12.509766 L 47.320312 12.289062 C 45.710313 11.729062 43.499297 12.090781 41.779297 12.550781 C 36.899297 6.6507813 29.439922 3 21.419922 3 z M 20.710938 7 L 21.199219 7 C 21.329219 7 24.539453 7.0400781 27.689453 10.080078 C 28.089453 10.460078 28.100703 11.100234 27.720703 11.490234 C 27.340703 11.890234 26.700547 11.899531 26.310547 11.519531 C 24.410547 9.6895312 22.549453 9.1907813 21.689453 9.0507812 C 20.309453 11.390781 21.409922 14.639922 21.419922 14.669922 C 21.599922 15.199922 21.320781 15.769219 20.800781 15.949219 C 20.690781 15.979219 20.580703 16 20.470703 16 C 20.060703 16 19.669297 15.740078 19.529297 15.330078 C 19.459297 15.130078 17.930156 10.580625 20.410156 7.390625 L 20.710938 7 z M 28.359375 16 C 30.889375 16 33.5 18.999531 33.5 24.019531 C 33.5 26.869531 34.94 28.880859 36.5 28.880859 C 37.21 28.880859 38.289531 28.179375 39.019531 27.359375 C 39.079531 28.189375 39.310937 28.759375 39.710938 28.859375 C 40.410938 29.029375 41.200859 27.770312 41.630859 25.820312 C 42.010859 24.040312 41.950391 22.520625 41.400391 22.140625 C 41.560391 21.870625 41.709141 21.629922 41.869141 21.419922 C 42.779141 20.209922 43.389375 20.400703 43.609375 20.470703 C 44.639375 20.790703 45.340234 23.370391 44.740234 27.150391 C 44.630234 27.860391 44.469062 28.539453 44.289062 29.189453 C 44.159062 29.219453 44.040156 29.249062 43.910156 29.289062 C 43.060156 29.579062 42.349844 30.040547 41.839844 30.560547 C 40.689844 30.470547 39.610781 30.840703 38.550781 31.220703 C 37.480781 31.600703 36.36 32 35 32 C 31.55 32 28.809375 30.959141 26.609375 30.119141 C 26.059375 29.909141 25.529531 29.699297 25.019531 29.529297 C 24.349531 28.079297 24 26.379844 24 24.589844 C 24 19.689844 25.869375 16 28.359375 16 z M 29.363281 21.103516 C 28.666281 20.927516 27.764844 22.243359 27.339844 24.193359 C 26.914844 26.143359 27.138938 27.744922 27.835938 27.919922 C 28.532937 28.094922 29.326953 26.825 29.751953 24.875 C 30.176953 22.925 30.059281 21.277516 29.363281 21.103516 z M 22.300781 30.970703 C 23.240781 30.970703 24.460391 31.430469 25.900391 31.980469 C 28.250391 32.880469 31.18 34 35 34 C 36.71 34 38.040703 33.519609 39.220703 33.099609 C 39.930703 32.849609 40.509062 32.650078 41.039062 32.580078 C 41.049062 32.610078 41.040781 32.639922 41.050781 32.669922 C 41.240781 33.379922 41.950625 33.830938 42.890625 33.960938 C 41.970625 40.450938 34.42 41 32 41 C 31.06 41 30.139531 40.910234 29.269531 40.740234 L 29.25 40.740234 C 28.78 40.640234 28.319141 40.530625 27.869141 40.390625 C 23.839141 39.140625 21 36.129375 21 32.609375 C 21 31.319375 21.369766 31.169375 21.509766 31.109375 C 21.749766 31.009375 22.010781 30.970703 22.300781 30.970703 z M 24.978516 33.988281 A 1.0001 1.0001 0 0 0 24.234375 35.642578 C 25.970662 37.712855 28.814658 39 32 39 A 1.0001 1.0001 0 1 0 32 37 C 29.359342 37 27.065338 35.907145 25.765625 34.357422 A 1.0001 1.0001 0 0 0 24.978516 33.988281 z"></path></svg>